<svg xmlns="http://www.w3.org/2000/svg" width="161.4" height="131.709" viewBox="0 0 161.4 131.709">
  <g id="customer" transform="translate(-5 -51.174)">
    <path id="Path_11" data-name="Path 11" d="M391.635,229.248v8.205a12.308,12.308,0,1,1-24.615,0v-8.205a12.308,12.308,0,1,1,24.615,0Z" transform="translate(-245.626 -112.47)" fill="#ffd8b7"/>
    <path id="Path_12" data-name="Path 12" d="M240.968,206.689v9.025a13.539,13.539,0,1,1-27.078,0v-9.025a13.539,13.539,0,0,1,27.078,0Z" transform="translate(-141.729 -96.329)" fill="#ffd8b7"/>
    <path id="Path_13" data-name="Path 13" d="M93.035,229.248v8.205a12.308,12.308,0,0,1-24.615,0v-8.205a12.308,12.308,0,1,1,24.615,0Z" transform="translate(-43.03 -112.47)" fill="#ffd8b7"/>
    <path id="Path_14" data-name="Path 14" d="M58.179,332.116a14.386,14.386,0,0,1,3.022.318v0a15.752,15.752,0,0,0-5.276,11.783v24.821H11V346.475a14.36,14.36,0,0,1,14.357-14.359h5.265a3.681,3.681,0,0,0,3.681-3.682l.045-.044,1.974,5.723a5.79,5.79,0,0,0,10.925.071l2.064-5.749a3.684,3.684,0,0,0,3.607,3.681Z" transform="translate(-4.071 -188.087)" fill="#e04a5d"/>
    <path id="Path_15" data-name="Path 15" d="M345.108,332.409a14.327,14.327,0,0,1,2.9-.293h5.26a3.679,3.679,0,0,0,3.681-3.681l.048-.045,1.971,5.723a5.792,5.792,0,0,0,10.928.071l2.061-5.749a3.684,3.684,0,0,0,3.607,3.681h5.263a14.36,14.36,0,0,1,14.359,14.357v22.569H350.258V344.221a15.764,15.764,0,0,0-5.218-11.735Z" transform="translate(-230.712 -188.087)" fill="#f0b640"/>
    <path id="Path_16" data-name="Path 16" d="M196.922,319.843h5.707a15.79,15.79,0,0,1,15.793,15.8v24.817H150.73V335.638a15.8,15.8,0,0,1,15.793-15.8h5.79a4.051,4.051,0,0,0,4.048-4.051l.051-.051,2.17,6.3a6.372,6.372,0,0,0,12.021.077l2.267-6.324a4.051,4.051,0,0,0,4.051,4.051Z" transform="translate(-98.876 -179.504)" fill="#3090fc"/>
    <path id="Path_17" data-name="Path 17" d="M391.731,97.328l-7.585,7.356,1.762,10.417-9.34-4.938-9.362,4.893,1.81-10.407-7.546-7.392,10.459-1.5,4.7-9.462,4.652,9.485Z" transform="translate(-241.86 -23.833)" fill="#ffca28"/>
    <path id="Path_18" data-name="Path 18" d="M236.692,69.58l-8.53,8.273,1.981,11.719-10.507-5.556-10.533,5.5,2.038-11.706L202.65,69.5l11.764-1.682L219.7,57.17l5.234,10.671Z" transform="translate(-134.103 -4.068)" fill="#ffca28"/>
    <path id="Path_19" data-name="Path 19" d="M85.851,97.328l-7.581,7.356L80.028,115.1l-9.34-4.938-9.362,4.893,1.813-10.407L55.59,97.257l10.459-1.5,4.7-9.462L75.4,95.785Z" transform="translate(-34.325 -23.833)" fill="#ffca28"/>
    <path id="Path_20" data-name="Path 20" d="M35,332.116h.63l-1.286-3.726-.045.045a3.681,3.681,0,0,1-3.682,3.681H25.359A14.36,14.36,0,0,0,11,346.473v22.569h9.645V346.475A14.36,14.36,0,0,1,35,332.116Z" transform="translate(-4.071 -188.087)" fill="#ff5a5a"/>
    <path id="Path_21" data-name="Path 21" d="M165.651,323.855a15.725,15.725,0,0,1,10.517-4.012h1.658l-1.415-4.1-.051.051a4.051,4.051,0,0,1-4.048,4.051h-5.79a15.8,15.8,0,0,0-15.793,15.793v24.823h9.645V335.638a15.752,15.752,0,0,1,5.276-11.783Z" transform="translate(-98.876 -179.504)" fill="#49bdff"/>
    <g id="Group_2" data-name="Group 2" transform="translate(5 51.174)">
      <path id="Path_22" data-name="Path 22" d="M204.994,74.413l-1.865,10.71a1.929,1.929,0,0,0,2.794,2.04l9.634-5.035,9.61,5.082a1.929,1.929,0,0,0,2.8-2.026l-1.812-10.719,7.8-7.569A1.929,1.929,0,0,0,232.9,63.6l-10.753-1.59-4.787-9.76a1.929,1.929,0,0,0-1.727-1.079h0a1.929,1.929,0,0,0-1.728,1.071l-4.834,9.736L198.3,63.519a1.929,1.929,0,0,0-1.077,3.288Zm5.622-8.755a1.929,1.929,0,0,0,1.455-1.052l3.547-7.144,3.513,7.16a1.929,1.929,0,0,0,1.45,1.059l7.891,1.166L222.746,72.4a1.929,1.929,0,0,0-.559,1.706l1.329,7.865-7.051-3.73a1.929,1.929,0,0,0-1.8,0L207.6,81.934l1.367-7.858a1.929,1.929,0,0,0-.551-1.709l-5.7-5.581Z" transform="translate(-135.031 -51.174)" fill="none"/>
      <path id="Path_23" data-name="Path 23" d="M362.874,101.247l-1.637,9.409a1.929,1.929,0,0,0,2.794,2.04l8.464-4.424,8.442,4.465a1.929,1.929,0,0,0,2.8-2.026l-1.592-9.417L389,94.646a1.929,1.929,0,0,0-1.061-3.293l-9.447-1.4-4.206-8.575a1.929,1.929,0,0,0-1.727-1.079h0a1.929,1.929,0,0,0-1.728,1.071l-4.247,8.552-9.454,1.35a1.929,1.929,0,0,0-1.077,3.287Zm5.258-7.645a1.929,1.929,0,0,0,1.455-1.052l2.96-5.961,2.931,5.975a1.929,1.929,0,0,0,1.45,1.059l6.584.973-4.777,4.634a1.929,1.929,0,0,0-.559,1.706l1.109,6.563-5.884-3.111a1.927,1.927,0,0,0-1.8,0l-5.9,3.083,1.141-6.559A1.929,1.929,0,0,0,366.3,99.2l-4.755-4.655Z" transform="translate(-242.791 -70.937)" fill="none"/>
      <path id="Path_24" data-name="Path 24" d="M57,101.247l-1.637,9.409a1.929,1.929,0,0,0,2.794,2.04l8.464-4.424,8.443,4.465a1.929,1.929,0,0,0,2.8-2.026L76.272,101.3l6.855-6.65a1.929,1.929,0,0,0-1.061-3.293l-9.45-1.4-4.205-8.574A1.929,1.929,0,0,0,66.684,80.3h0a1.929,1.929,0,0,0-1.728,1.071L60.7,89.926l-9.454,1.35a1.929,1.929,0,0,0-1.077,3.287ZM62.254,93.6a1.929,1.929,0,0,0,1.456-1.052l2.96-5.961L69.6,92.565a1.929,1.929,0,0,0,1.45,1.059l6.584.973-4.777,4.634a1.929,1.929,0,0,0-.559,1.706l1.109,6.563-5.884-3.111a1.927,1.927,0,0,0-1.8,0l-5.9,3.082,1.141-6.559a1.929,1.929,0,0,0-.55-1.709l-4.755-4.655Z" transform="translate(-35.257 -70.937)" fill="none"/>
      <path id="Path_25" data-name="Path 25" d="M223.359,187.146a15.485,15.485,0,0,0-15.468,15.468v9.026a15.468,15.468,0,1,0,30.935,0v-9.026A15.485,15.485,0,0,0,223.359,187.146Zm11.61,24.494a11.61,11.61,0,0,1-23.219,0v-9.026a11.61,11.61,0,1,1,23.219,0Z" transform="translate(-142.659 -143.429)" fill="#284268"/>
      <path id="Path_26" data-name="Path 26" d="M375.256,210.936a14.253,14.253,0,0,0-14.237,14.237v8.205a14.237,14.237,0,1,0,28.474,0v-8.205A14.253,14.253,0,0,0,375.256,210.936Zm10.379,22.442a10.379,10.379,0,0,1-20.758,0v-8.205a10.379,10.379,0,0,1,20.758,0Z" transform="translate(-246.554 -159.57)" fill="#284268"/>
      <path id="Path_27" data-name="Path 27" d="M150.112,317.536h-5.187a1.755,1.755,0,0,1-1.753-1.753,1.929,1.929,0,0,0-3.745-.651l-2.063,5.747a3.863,3.863,0,0,1-7.288-.047l-1.973-5.723a1.929,1.929,0,0,0-3.188-.735l-.047.046a1.929,1.929,0,0,0-.565,1.364,1.755,1.755,0,0,1-1.753,1.753H117.29a16.424,16.424,0,0,0-2.485.189,17.636,17.636,0,0,0-11.054-3.882H98.046a2.122,2.122,0,0,1-2.122-2.122,1.929,1.929,0,0,0-3.745-.651l-2.268,6.323a4.442,4.442,0,0,1-8.381-.054l-2.17-6.3a1.929,1.929,0,0,0-3.189-.734l-.051.051a1.929,1.929,0,0,0-.563,1.362,2.122,2.122,0,0,1-2.122,2.122H67.648A17.635,17.635,0,0,0,56.6,317.728a16.416,16.416,0,0,0-2.486-.191H48.923a1.755,1.755,0,0,1-1.753-1.753,1.929,1.929,0,0,0-3.745-.651l-2.062,5.746a3.863,3.863,0,0,1-7.288-.047L32.1,315.109a1.929,1.929,0,0,0-3.188-.735l-.046.046a1.929,1.929,0,0,0-.565,1.364,1.755,1.755,0,0,1-1.753,1.753H21.289A16.307,16.307,0,0,0,5,333.824v22.565a1.929,1.929,0,0,0,1.929,1.929H164.471a1.929,1.929,0,0,0,1.929-1.929V333.824a16.307,16.307,0,0,0-16.288-16.289ZM49.924,331.568V354.46H8.858V333.824a12.445,12.445,0,0,1,12.43-12.43H26.55a5.58,5.58,0,0,0,3.273-1.055l.6,1.752a7.721,7.721,0,0,0,14.567.093l.661-1.841a5.582,5.582,0,0,0,3.087,1.05l.106,0h4.3A17.622,17.622,0,0,0,49.924,331.568Zm67.693,22.892H53.782V331.568A13.882,13.882,0,0,1,67.648,317.7h5.787a5.952,5.952,0,0,0,3.7-1.283l.75,2.178a8.3,8.3,0,0,0,15.66.1l.815-2.271a5.948,5.948,0,0,0,3.5,1.273c.036,0,.072,0,.109,0h5.787a13.882,13.882,0,0,1,13.866,13.866Zm44.924,0H121.476V331.568a17.622,17.622,0,0,0-3.224-10.174h4.3a5.58,5.58,0,0,0,3.273-1.055l.6,1.752a7.721,7.721,0,0,0,14.567.093l.661-1.841a5.582,5.582,0,0,0,3.087,1.05l.106,0h5.262a12.445,12.445,0,0,1,12.431,12.429Z" transform="translate(-5 -226.609)" fill="#284268"/>
      <path id="Path_28" data-name="Path 28" d="M62.422,225.173v8.205a14.237,14.237,0,1,0,28.474,0v-8.205a14.237,14.237,0,1,0-28.474,0Zm24.616,0v8.205a10.379,10.379,0,1,1-20.758,0v-8.205a10.379,10.379,0,0,1,20.758,0Z" transform="translate(-43.96 -159.57)" fill="#284268"/>
    </g>
  </g>
</svg>
