<svg id="Capa_1" enable-background="new 0 0 510.571 510.571" height="512" viewBox="0 0 510.571 510.571" width="512" xmlns="http://www.w3.org/2000/svg"><g><g><circle cx="255.286" cy="255.286" fill="#f9f7f8" r="247.786"/><path d="m414.78 148.825 11.082-11.082c5.97-5.97 9.258-13.908 9.258-22.351s-3.288-16.381-9.258-22.35l-8.332-8.332c-5.97-5.97-13.908-9.258-22.351-9.258s-16.381 3.288-22.351 9.258l-11.082 11.082c-30.48-20.412-67.103-32.333-106.461-32.333-105.774 0-191.827 86.053-191.827 191.827s86.053 191.827 191.827 191.827 191.827-86.053 191.827-191.827c.001-39.359-11.921-75.981-32.332-106.461z" fill="#efedef"/><path d="m388.526 146.795 23.194-23.195c4.534-4.534 4.534-11.884 0-16.417l-8.331-8.332c-4.534-4.534-11.884-4.534-16.418 0l-23.194 23.194-23.555 24.749 23.892 24.277z" fill="#c9bfc8"/><circle cx="255.286" cy="255.286" fill="#f9f7f8" r="171.827"/><g><circle cx="255.286" cy="255.286" fill="#ade194" r="141.827"/></g><path d="m166.994 255.286c0-69.054 49.645-126.741 115.093-139.294-8.672-1.663-17.652-2.534-26.802-2.534-78.204 0-141.827 63.624-141.827 141.827s63.624 141.827 141.827 141.827c9.15 0 18.13-.872 26.802-2.535-65.448-12.552-115.093-70.237-115.093-139.291z" fill="#97da7b"/></g><g><path d="m482.023 137.885c-18.068-34.816-44.392-65.496-76.126-88.723-3.343-2.446-8.035-1.72-10.482 1.623-2.446 3.343-1.72 8.036 1.623 10.482 29.879 21.869 54.663 50.752 71.672 83.527 17.824 34.347 26.862 71.521 26.862 110.492 0 64.183-24.994 124.523-70.378 169.908-45.384 45.384-105.725 70.378-169.908 70.378s-124.523-24.994-169.908-70.378c-45.384-45.385-70.378-105.726-70.378-169.908s24.994-124.524 70.378-169.908 105.725-70.378 169.908-70.378c40.407 0 80.374 10.23 115.579 29.584 3.63 1.996 8.19.671 10.186-2.959s.671-8.19-2.959-10.186c-37.414-20.567-79.88-31.439-122.806-31.439-68.19 0-132.297 26.554-180.515 74.771s-74.771 112.325-74.771 180.515 26.554 132.297 74.771 180.514 112.325 74.771 180.514 74.771 132.298-26.554 180.515-74.771 74.771-112.325 74.771-180.514c0-40.816-9.871-81.413-28.548-117.401z"/><path d="m422.62 115.392c0-5.104-1.988-9.903-5.597-13.512l-8.331-8.332c-7.45-7.451-19.574-7.451-27.024 0l-18.548 18.549c-30.033-22.674-67.389-36.138-107.834-36.138-25.257 0-49.68 5.15-72.591 15.308-22.124 9.809-41.762 23.781-58.369 41.53-2.83 3.024-2.672 7.771.352 10.601 3.024 2.829 7.771 2.672 10.601-.353 30.973-33.101 74.713-52.086 120.007-52.086 90.61 0 164.327 73.717 164.327 164.327s-73.717 164.327-164.327 164.327-164.328-73.717-164.328-164.327c0-31.317 8.846-61.774 25.581-88.079 2.223-3.495 1.192-8.13-2.302-10.354-3.496-2.223-8.129-1.193-10.354 2.302-18.268 28.714-27.924 61.956-27.924 96.13 0 98.881 80.446 179.327 179.327 179.327s179.327-80.446 179.327-179.327c0-40.445-13.464-77.8-36.138-107.833l18.548-18.549c3.609-3.609 5.597-8.407 5.597-13.511zm-16.203 2.905-17.519 17.519c-4.45-4.971-9.171-9.693-14.143-14.143l17.519-17.519c1.603-1.603 4.209-1.602 5.812 0l8.331 8.332c.776.776 1.204 1.808 1.204 2.905-.001 1.098-.429 2.13-1.204 2.906z"/><path d="m255.286 404.613c82.339 0 149.327-66.988 149.327-149.327s-66.988-149.327-149.327-149.327-149.327 66.988-149.327 149.327 66.987 149.327 149.327 149.327zm0-283.655c74.068 0 134.327 60.259 134.327 134.327s-60.259 134.327-134.327 134.327-134.327-60.259-134.327-134.327 60.258-134.327 134.327-134.327z"/><path d="m247.786 342.992v12.681c0 4.142 3.358 7.5 7.5 7.5s7.5-3.358 7.5-7.5v-12.683c15.982-1.525 31.234-7.882 43.584-18.3 3.167-2.67 3.568-7.402.897-10.568-2.671-3.167-7.403-3.568-10.568-.897-9.646 8.136-21.475 13.211-33.913 14.678v-118.989c0-4.142-3.358-7.5-7.5-7.5s-7.5 3.358-7.5 7.5v118.991c-31.925-3.728-56.786-30.925-56.786-63.834 0-23.724 32.558-65.444 63.027-96.578.427-.437.92-.529 1.259-.529s.832.092 1.259.528c30.469 31.134 63.027 72.855 63.027 96.579 0 9.035-1.853 17.792-5.507 26.029-1.68 3.787.028 8.218 3.814 9.897 3.787 1.679 8.218-.028 9.897-3.814 4.509-10.165 6.796-20.969 6.796-32.112 0-33.32-42.169-81.385-67.306-107.07-3.179-3.248-7.434-5.037-11.98-5.037s-8.801 1.789-11.98 5.037c-8.711 8.901-25.482 26.771-39.931 46.445-18.165 24.735-27.375 45.132-27.375 60.625 0 41.188 31.573 75.129 71.786 78.921z"/><path d="m320.326 174.214c11.869 9.542 21.676 21.78 28.361 35.39 1.304 2.654 3.967 4.195 6.738 4.195 1.11 0 2.237-.248 3.301-.77 3.718-1.827 5.251-6.321 3.425-10.039-7.646-15.565-18.859-29.559-32.427-40.467-3.229-2.596-7.95-2.083-10.544 1.146-2.596 3.229-2.083 7.95 1.146 10.545z"/><path d="m148.421 307.581c7.646 15.566 18.859 29.559 32.426 40.466 1.385 1.114 3.045 1.655 4.694 1.655 2.194 0 4.369-.958 5.85-2.801 2.595-3.228 2.083-7.949-1.146-10.544-11.869-9.542-21.676-21.779-28.362-35.389-1.826-3.718-6.321-5.251-10.038-3.425s-5.251 6.32-3.424 10.038z"/></g></g></svg>