<svg xmlns="http://www.w3.org/2000/svg" width="357.13" height="142" viewBox="0 0 357.13 142">
  <g id="LOGO" transform="translate(-1289 -1378)">
    <g id="mug" transform="translate(1570.526 1442.154)">
      <g id="Group_4" data-name="Group 4" transform="translate(1.111 1.111)">
        <circle id="Ellipse_3" data-name="Ellipse 3" cx="36.692" cy="36.692" r="36.692" fill="#f9f7f8"/>
        <path id="Path_29" data-name="Path 29" d="M115.481,76.1l1.641-1.641a4.68,4.68,0,0,0,0-6.619l-1.234-1.234a4.681,4.681,0,0,0-6.619,0l-1.641,1.641a28.43,28.43,0,1,0,7.853,7.853Z" transform="translate(-55.172 -55.173)" fill="#efedef"/>
        <path id="Path_30" data-name="Path 30" d="M347.375,103.053l3.435-3.435a1.719,1.719,0,0,0,0-2.431l-1.234-1.234a1.719,1.719,0,0,0-2.431,0l-3.435,3.435-3.488,3.665,3.538,3.595Z" transform="translate(-290.953 -82.427)" fill="#c9bfc8"/>
        <circle id="Ellipse_4" data-name="Ellipse 4" cx="25.444" cy="25.444" r="25.444" transform="translate(11.248 11.248)" fill="#f9f7f8"/>
        <g id="Group_3" data-name="Group 3" transform="translate(15.69 15.69)">
          <circle id="Ellipse_5" data-name="Ellipse 5" cx="21.001" cy="21.001" r="21.001" fill="#388e3c"/>
        </g>
        <path id="Path_31" data-name="Path 31" d="M121.385,134.46a21.042,21.042,0,0,1,17.043-20.626,21,21,0,1,0,0,41.252A21.041,21.041,0,0,1,121.385,134.46Z" transform="translate(-97.768 -97.768)" fill="#388e3c"/>
      </g>
      <g id="Group_5" data-name="Group 5" transform="translate(0 0)">
        <path id="Path_32" data-name="Path 32" d="M71.377,20.418A38.146,38.146,0,0,0,60.1,7.28a1.111,1.111,0,0,0-1.312,1.792A35.913,35.913,0,0,1,69.405,21.441,35.587,35.587,0,0,1,37.8,73.383a35.581,35.581,0,0,1-25.16-60.741A35.6,35.6,0,0,1,54.917,6.6a1.111,1.111,0,1,0,1.07-1.946,37.779,37.779,0,1,0,15.39,15.762Z" transform="translate(0 0)"/>
        <path id="Path_33" data-name="Path 33" d="M127.292,81.8a2.811,2.811,0,0,0-.829-2l-1.234-1.234a2.833,2.833,0,0,0-4,0l-2.747,2.747a26.512,26.512,0,0,0-35.36,3.065,1.111,1.111,0,1,0,1.622,1.517,24.269,24.269,0,1,1-2.775,3.578,1.111,1.111,0,0,0-1.874-1.192,26.562,26.562,0,1,0,43.622-1.733l2.747-2.747A2.811,2.811,0,0,0,127.292,81.8Zm-2.4.43L122.3,84.823a26.794,26.794,0,0,0-2.094-2.094l2.594-2.594a.609.609,0,0,1,.861,0l1.234,1.234a.608.608,0,0,1,0,.86Z" transform="translate(-64.711 -64.711)"/>
        <path id="Path_34" data-name="Path 34" d="M128.071,150.183a22.112,22.112,0,1,0-22.112-22.112A22.137,22.137,0,0,0,128.071,150.183Zm0-42a19.891,19.891,0,1,1-19.891,19.891A19.913,19.913,0,0,1,128.071,108.18Z" transform="translate(-90.269 -90.269)"/>
        <path id="Path_35" data-name="Path 35" d="M186.63,180.251v1.878a1.111,1.111,0,1,0,2.221,0v-1.878a11.749,11.749,0,0,0,6.454-2.71,1.111,1.111,0,1,0-1.432-1.7,9.524,9.524,0,0,1-5.022,2.173V160.4a1.111,1.111,0,1,0-2.221,0v17.62a9.531,9.531,0,0,1-8.409-9.452c0-3.513,4.821-9.691,9.333-14.3a.261.261,0,0,1,.373,0c4.512,4.61,9.333,10.788,9.333,14.3a9.446,9.446,0,0,1-.815,3.854,1.111,1.111,0,1,0,2.03.9,11.654,11.654,0,0,0,1.006-4.755c0-4.934-6.244-12.051-9.966-15.855a2.483,2.483,0,0,0-3.548,0,67.9,67.9,0,0,0-5.913,6.877c-2.69,3.663-4.054,6.683-4.054,8.977A11.755,11.755,0,0,0,186.63,180.251Z" transform="translate(-149.938 -129.462)"/>
        <path id="Path_36" data-name="Path 36" d="M317.939,162.844a15.591,15.591,0,0,1,4.2,5.24,1.111,1.111,0,1,0,1.994-.979,17.827,17.827,0,0,0-4.8-5.992,1.111,1.111,0,1,0-1.392,1.731Z" transform="translate(-270.506 -137.047)"/>
        <path id="Path_37" data-name="Path 37" d="M147.765,298.374a17.826,17.826,0,0,0,4.8,5.992,1.111,1.111,0,0,0,1.392-1.731,15.592,15.592,0,0,1-4.2-5.24,1.11,1.11,0,1,0-1.993.979Z" transform="translate(-125.787 -252.828)"/>
      </g>
    </g>
    <text id="HerbalIst" transform="translate(1466 1426)" font-size="46" font-family="Roboto-Medium, Roboto" font-weight="500" letter-spacing="0.3em"><tspan x="-175.49" y="0">HERBALIST</tspan></text>
    <rect id="Rectangle_3" data-name="Rectangle 3" width="247" height="77" transform="translate(1289 1443)" fill="#388e3c"/>
    <text id="Book" transform="translate(1411 1497)" fill="#fff" font-size="46" font-family="Roboto-Medium, Roboto" font-weight="500" letter-spacing="0.3em"><tspan x="-81.468" y="0">BOOK</tspan></text>
  </g>
</svg>
