<svg xmlns="http://www.w3.org/2000/svg" width="230" height="477" viewBox="0 0 230 477">
  <g id="Herbalist_Book" data-name="Herbalist Book" transform="translate(-1428 -1378)">
    <g id="mug" transform="translate(1494 1691)">
      <g id="Group_4" data-name="Group 4" transform="translate(2.409 2.409)">
        <circle id="Ellipse_3" data-name="Ellipse 3" cx="79.591" cy="79.591" r="79.591" fill="#f9f7f8"/>
        <path id="Path_29" data-name="Path 29" d="M176.306,90.879l3.56-3.56a10.153,10.153,0,0,0,0-14.358l-2.676-2.676a10.153,10.153,0,0,0-14.359,0l-3.56,3.56a61.669,61.669,0,1,0,17.035,17.035Z" transform="translate(-45.484 -45.484)" fill="#efedef"/>
        <path id="Path_30" data-name="Path 30" d="M355.738,111.943l7.45-7.45a3.729,3.729,0,0,0,0-5.273l-2.676-2.676a3.729,3.729,0,0,0-5.274,0l-7.45,7.45-7.566,7.95,7.674,7.8Z" transform="translate(-233.349 -67.2)" fill="#c9bfc8"/>
        <circle id="Ellipse_4" data-name="Ellipse 4" cx="55.192" cy="55.192" r="55.192" transform="translate(24.399 24.399)" fill="#f9f7f8"/>
        <g id="Group_3" data-name="Group 3" transform="translate(34.035 34.035)">
          <circle id="Ellipse_5" data-name="Ellipse 5" cx="45.556" cy="45.556" r="45.556" fill="#388e3c"/>
        </g>
        <path id="Path_31" data-name="Path 31" d="M130.654,159.014a45.644,45.644,0,0,1,36.969-44.742,45.556,45.556,0,1,0,0,89.484A45.643,45.643,0,0,1,130.654,159.014Z" transform="translate(-79.423 -79.423)" fill="#388e3c"/>
      </g>
      <g id="Group_5" data-name="Group 5" transform="translate(0 0)">
        <path id="Path_32" data-name="Path 32" d="M154.83,44.29a82.747,82.747,0,0,0-24.452-28.5,2.409,2.409,0,0,0-2.846,3.888,77.9,77.9,0,0,1,23.022,26.83A77.195,77.195,0,0,1,82,159.182,77.182,77.182,0,0,1,27.424,27.424a77.216,77.216,0,0,1,91.7-13.1,2.409,2.409,0,1,0,2.321-4.222A81.95,81.95,0,1,0,154.83,44.29Z" transform="translate(0 0)"/>
        <path id="Path_33" data-name="Path 33" d="M187.31,88.625a6.1,6.1,0,0,0-1.8-4.34l-2.676-2.676a6.145,6.145,0,0,0-8.68,0L168.2,87.567a57.51,57.51,0,0,0-76.7,6.649,2.409,2.409,0,1,0,3.518,3.292,52.643,52.643,0,1,1-6.019,7.761,2.409,2.409,0,0,0-4.065-2.586,57.618,57.618,0,1,0,94.626-3.759l5.958-5.958a6.1,6.1,0,0,0,1.8-4.34Zm-5.2.933-5.627,5.627a58.119,58.119,0,0,0-4.543-4.543l5.627-5.627a1.321,1.321,0,0,1,1.867,0l2.676,2.676a1.319,1.319,0,0,1,0,1.867Z" transform="translate(-51.56 -51.56)"/>
        <path id="Path_34" data-name="Path 34" d="M153.924,201.889a47.965,47.965,0,1,0-47.965-47.965A48.02,48.02,0,0,0,153.924,201.889Zm0-91.113a43.147,43.147,0,1,1-43.147,43.147A43.2,43.2,0,0,1,153.924,110.777Z" transform="translate(-71.924 -71.924)"/>
        <path id="Path_35" data-name="Path 35" d="M199.058,213.324V217.4a2.409,2.409,0,1,0,4.818,0v-4.074a25.485,25.485,0,0,0,14-5.878,2.409,2.409,0,0,0-3.106-3.683,20.659,20.659,0,0,1-10.893,4.715v-38.22a2.409,2.409,0,1,0-4.818,0v38.221a20.676,20.676,0,0,1-18.24-20.5c0-7.62,10.458-21.021,20.245-31.022a.567.567,0,0,1,.809,0c9.787,10,20.245,23.4,20.245,31.022a20.489,20.489,0,0,1-1.769,8.361,2.409,2.409,0,0,0,4.4,1.954,25.28,25.28,0,0,0,2.183-10.315c0-10.7-13.545-26.142-21.619-34.392a5.385,5.385,0,0,0-7.7,0A147.292,147.292,0,0,0,184.793,168.5C178.958,176.446,176,183,176,187.974A25.5,25.5,0,0,0,199.058,213.324Z" transform="translate(-119.467 -103.152)"/>
        <path id="Path_36" data-name="Path 36" d="M318.424,165.155a33.818,33.818,0,0,1,9.11,11.368,2.409,2.409,0,1,0,4.325-2.124,38.673,38.673,0,0,0-10.416-13,2.409,2.409,0,0,0-3.019,3.755Z" transform="translate(-215.533 -109.195)"/>
        <path id="Path_37" data-name="Path 37" d="M147.9,300.245a38.668,38.668,0,0,0,10.416,13,2.409,2.409,0,0,0,3.019-3.755,33.821,33.821,0,0,1-9.11-11.367,2.409,2.409,0,1,0-4.324,2.124Z" transform="translate(-100.224 -201.447)"/>
      </g>
    </g>
    <text id="H_e_r_b_a_l_I_s_t" data-name="H
e
r
b
a
l
I
s
t" transform="translate(1443 1420)" font-size="40" font-family="Roboto-Medium, Roboto" font-weight="500" letter-spacing="0.13em"><tspan x="-14.209" y="0">H</tspan><tspan x="-11.309" y="53">E</tspan><tspan x="-12.48" y="106">R</tspan><tspan x="-12.617" y="159">B</tspan><tspan x="-13.311" y="212">A</tspan><tspan x="-10.82" y="265">L</tspan><tspan x="-5.645" y="318">I</tspan><tspan x="-12.07" y="371">S</tspan><tspan x="-12.139" y="424">T</tspan></text>
    <rect id="Rectangle_3" data-name="Rectangle 3" width="70" height="269" transform="translate(1541 1387)" fill="#388e3c"/>
    <text id="B_o_o_k" data-name="B
o
o
k" transform="translate(1576 1458)" fill="#fff" font-size="40" font-family="Roboto-Medium, Roboto" font-weight="500" letter-spacing="0.13em"><tspan x="-12.617" y="0">B</tspan><tspan x="-13.809" y="53">O</tspan><tspan x="-13.809" y="106">O</tspan><tspan x="-12.607" y="159">K</tspan></text>
  </g>
</svg>
